<svg width="82" height="11" viewBox="0 0 82 11" fill="none" xmlns="http://www.w3.org/2000/svg">
<path d="M14.4899 10.2501L16.6756 0H2.18576L0 10.2501H14.4899Z" fill="white"/>
<path fill-rule="evenodd" clip-rule="evenodd" d="M10.7745 2.14986C12.4574 2.54083 12.501 2.95336 12.501 2.95336C13.5938 2.95336 13.878 2.95336 14.0746 3.14879C14.7084 3.73519 13.6375 5.16845 13.6375 5.16845C13.5065 5.25531 1.44238 9.94597 1.44238 9.94597H14.1403L16.1727 0.412598H2.53512C2.53512 0.412598 10.5778 2.10637 10.7745 2.14986Z" fill="#333366"/>
<path fill-rule="evenodd" clip-rule="evenodd" d="M12.0203 3.53962C11.7367 3.63567 11.4437 3.70123 11.146 3.73517C10.9712 3.75683 10.8838 3.75683 10.8838 3.80022C10.8838 3.86553 11.1241 3.84371 11.2116 3.84371C11.6051 3.84371 13.1568 3.73517 13.5283 3.80022C13.8124 3.84371 13.4845 4.40829 13.3971 4.75576C13.3753 4.88602 13.4627 4.82095 13.5065 4.75576C13.6959 4.45885 13.8429 4.13727 13.9435 3.80022C13.9872 3.36598 13.6812 3.30082 13.1568 3.30082H12.348C12.3251 3.29755 12.3016 3.30224 12.2817 3.31412C12.2618 3.32599 12.2467 3.34432 12.2388 3.36601C12.1733 3.43106 12.0641 3.49613 12.0203 3.53964L12.0203 3.53962Z" fill="#333366"/>
<path fill-rule="evenodd" clip-rule="evenodd" d="M6.9938 6.754L0.502747 9.94621L2.07637 2.62793H8.63276C8.74201 2.62793 12.1514 2.62793 12.2171 3.30109H6.31623L7.23399 6.08075C8.28321 5.58122 10.862 4.53892 12.4137 4.47361C13.0694 4.45193 13.3316 4.56047 13.2005 4.64749C13.1131 4.69084 12.4793 4.77771 11.9766 4.90809C11.3552 5.04723 10.7422 5.22119 10.1407 5.42916C9.06753 5.81178 8.01692 6.25409 6.9938 6.754H6.9938Z" fill="#333366"/>
<path fill-rule="evenodd" clip-rule="evenodd" d="M20.5874 10.1633C18.0522 10.1633 16.5442 9.16422 17.0469 6.92758C17.8774 3.06213 18.4239 0.478028 18.4239 0.478028H20.5437C20.5437 0.478028 19.2543 6.42806 19.2979 6.29784C18.9701 7.77447 19.2979 8.66485 20.9152 8.66485C22.4669 8.66485 23.2537 7.77446 23.5815 6.29784C23.7782 5.45083 24.8272 0.478028 24.8272 0.478028H26.9472C25.5266 6.9276 26.9472 0.478028 25.5484 6.9276C25.0239 9.14268 23.1007 10.1633 20.5874 10.1633V10.1633Z" fill="#333366"/>
<path fill-rule="evenodd" clip-rule="evenodd" d="M38.2683 6.36302C37.8074 6.35836 37.3474 6.32209 36.8915 6.25448L37.1538 4.88626C37.416 4.90808 37.7656 4.95156 38.0935 4.95156C38.5723 4.98947 39.0485 4.85109 39.4314 4.56276C39.8142 4.27443 40.077 3.85629 40.1697 3.38793C40.3881 2.3455 39.8638 1.97636 39.0988 1.97636H37.3723L35.6676 9.98957H33.5476L35.5801 0.478028H40.1697C42.2459 0.478028 42.4863 2.28044 42.2241 3.4748C41.8306 5.25554 40.1477 6.36302 38.2683 6.36302H38.2683Z" fill="#333366"/>
<path fill-rule="evenodd" clip-rule="evenodd" d="M33.7881 1.99766H31.5369C30.3787 1.99766 29.8759 2.2366 29.7666 2.69262C29.4387 4.21277 33.5693 5.40712 33.1759 7.75244C32.9573 9.05534 31.8209 9.98922 29.1764 9.98922H25.942L26.2697 8.46908H28.8486C29.6573 8.46908 30.6408 8.51258 30.8156 7.70894C31.1215 6.34099 27.0565 4.99445 27.3625 2.71432C27.5591 1.34622 28.7831 0.477539 31.2527 0.477539L34.0938 0.477675L33.788 1.99766H33.7881Z" fill="#333366"/>
<path fill-rule="evenodd" clip-rule="evenodd" d="M49.5454 1.99766H47.2945C46.136 1.99766 45.6335 2.2366 45.5241 2.69262C45.1964 4.21277 49.327 5.40712 48.9335 7.75244C48.715 9.05534 47.5784 9.98922 44.9341 9.98922H41.6994L42.0274 8.46908H44.628C45.4368 8.46908 46.4202 8.51258 46.595 7.70894C46.901 6.34099 42.8359 4.99445 43.1419 2.71432C43.3386 1.34622 44.5625 0.477539 47.0322 0.477539L49.8732 0.477675L49.5454 1.99766Z" fill="#333366"/>
<path fill-rule="evenodd" clip-rule="evenodd" d="M50.2666 8.29542C50.098 8.29544 49.9332 8.34513 49.7931 8.43821C49.6529 8.53128 49.5437 8.66355 49.4792 8.8183C49.4148 8.97305 49.3979 9.14333 49.4308 9.3076C49.4637 9.47187 49.5449 9.62275 49.6641 9.74118C49.7833 9.8596 49.9352 9.94024 50.1005 9.97291C50.2658 10.0056 50.4372 9.98879 50.5929 9.92468C50.7486 9.86058 50.8817 9.75203 50.9754 9.61276C51.069 9.47349 51.119 9.30976 51.119 9.14227C51.1187 8.91773 51.0288 8.70246 50.869 8.5437C50.7092 8.38494 50.4925 8.29565 50.2666 8.29542Z" fill="#333366"/>
<path fill-rule="evenodd" clip-rule="evenodd" d="M82 0.434571L79.9236 9.96766H78.1533L79.7272 2.88846L75.5092 9.96766H73.6952L72.6898 3.34429L71.2256 9.96766H69.4772L71.5095 0.434571H74.0446L75.1156 7.44859L79.2243 0.434571H82Z" fill="#333366"/>
<path fill-rule="evenodd" clip-rule="evenodd" d="M55.8614 10.163C54.7156 10.2129 53.5834 9.90119 52.6269 9.27248C52.1887 8.94178 51.8382 8.50985 51.6059 8.01413C51.3735 7.51842 51.2664 6.97388 51.2938 6.42773C51.2945 6.00341 51.3458 5.58067 51.4467 5.16835C52.146 1.75889 55.0091 0.23877 57.9157 0.23877C58.6349 0.245432 59.3519 0.318115 60.0576 0.45589L60.2106 0.477699L59.861 2.0195L59.7298 1.99769C59.249 1.95434 58.9211 1.91096 58.4841 1.91096C58.0898 1.9116 57.6958 1.93332 57.3038 1.97603C56.6181 2.03092 55.9605 2.27124 55.4024 2.67095C54.815 3.03709 54.328 3.54204 53.9847 4.14075C53.6415 4.73945 53.4528 5.41327 53.4355 6.10208C53.4166 6.46386 53.4959 6.82403 53.665 7.14493C53.8342 7.46583 54.0871 7.73566 54.3971 7.92619C55.1381 8.35638 55.9873 8.56735 56.8449 8.53428C57.3271 8.53847 57.8091 8.50949 58.2873 8.44752L58.5059 8.42574L58.178 9.92417L58.0688 9.94597C57.341 10.0837 56.6022 10.1563 55.8614 10.163H55.8614Z" fill="#333366"/>
<path fill-rule="evenodd" clip-rule="evenodd" d="M65.5215 0.412598C62.5928 0.412598 60.1669 1.93274 59.4676 5.25531C58.8993 7.92629 60.5386 10.1197 63.4452 10.1197C66.3957 10.1197 68.7559 8.66474 69.499 5.25531C70.0673 2.47565 68.4063 0.412598 65.5215 0.412598ZM67.5321 5.27699C67.0731 7.6657 65.6307 8.68645 63.8168 8.68645C62.0246 8.68645 61.0411 7.14451 61.369 5.27701C61.806 2.93157 63.2922 1.88928 65.0842 1.88928C66.8765 1.86759 67.9036 3.32255 67.5321 5.27701V5.27699Z" fill="#333366"/>
</svg>
