<svg width="61" height="17" viewBox="0 0 61 17" fill="none" xmlns="http://www.w3.org/2000/svg">
<path d="M0.00552798 0.0115189C3.37209 -0.0104499 6.73866 0.00624635 10.1061 0.00362767C10.1198 1.23212 10.1195 2.46061 10.1052 3.6891C8.26361 3.69967 6.42138 3.69967 4.57856 3.6891C4.56577 4.4545 4.57033 5.21989 4.57582 5.98527C6.2714 5.97386 7.9661 5.98265 9.66171 5.97914C9.669 6.65575 9.66446 7.33241 9.6608 8.00906C10.0504 7.45538 10.5214 6.959 11.0589 6.5354C11.9535 5.89556 13.0104 5.49916 14.1188 5.38774C15.2148 5.32711 16.3483 5.31042 17.3887 5.69792C18.7174 6.11447 19.8216 7.0802 20.4614 8.26741C20.6343 8.59908 20.7882 8.93967 20.9222 9.28763C21.3694 7.87459 22.386 6.61623 23.7568 5.9343C25.009 5.3339 26.4519 5.21604 27.7913 5.60476C28.4539 5.80601 29.0215 6.20762 29.4951 6.68918C29.5016 4.45978 29.4979 2.23127 29.4961 0.00187017C30.8385 0.00714268 32.18 -0.00954481 33.5215 0.012424C33.4914 3.19172 33.5179 6.37191 33.5087 9.55126C33.5142 11.8228 33.4996 14.0953 33.516 16.3669C32.1946 16.4073 30.8732 16.3836 29.5517 16.3827C29.5444 16.0268 29.5423 15.6715 29.5454 15.3167L29.5116 15.3651C28.9047 16.1322 28.0514 16.7429 27.0549 16.9293C25.7942 17.1333 24.4996 16.884 23.4172 16.2289C21.8905 15.3062 20.8748 13.6743 20.6795 11.9573C18.1835 11.9502 15.6876 11.959 13.1916 11.952C13.052 11.9608 12.9005 11.9371 12.7728 12.0021C12.8002 12.3551 12.9096 12.6977 13.0928 13.0046C13.276 13.3115 13.5284 13.5749 13.8314 13.7754C14.5231 14.2367 15.4585 14.257 16.2196 13.9485C16.5527 13.7781 16.7882 13.4811 17.0264 13.2077C18.3241 13.2244 19.6227 13.2007 20.9204 13.2157C20.4039 14.5373 19.4183 15.728 18.0786 16.3431C16.8356 16.9284 15.3974 17.0532 14.0376 16.8888C12.4369 16.685 10.9165 15.8598 9.96742 14.5927C9.21111 13.5885 8.81776 12.3731 8.84766 11.133C8.82395 10.5926 8.93163 10.0601 8.99734 9.52577C7.5235 9.52139 6.04965 9.52491 4.57582 9.52401C4.57033 11.8202 4.57003 14.1166 4.57491 16.4134C3.05178 16.4363 1.52773 16.4134 0.00370279 16.4249C-0.00178191 10.9537 -0.00117351 5.48263 0.00552798 0.0115189ZM13.825 8.22257C13.3541 8.524 13.0885 9.02487 12.916 9.52753C14.3452 9.53633 15.7724 9.56533 17.2007 9.52753C17.0601 9.12596 16.9105 8.69975 16.5728 8.40802C15.8427 7.76123 14.639 7.6628 13.825 8.22257ZM26.5776 8.39304C25.5737 8.62595 24.9313 9.57236 24.7989 10.5144C24.5717 11.5355 24.8674 12.7069 25.7115 13.3984C26.5165 14.0707 27.8415 14.0338 28.6136 13.3299C29.3382 12.5988 29.4769 11.5109 29.3446 10.5477C29.2205 9.8931 28.9841 9.19889 28.4247 8.76827C27.9127 8.3658 27.2128 8.26741 26.5776 8.39304V8.39304Z" fill="#312280"/>
<path d="M33.5211 0.0126958C36.6814 0.0232057 39.8411 0.0234928 43.0002 0.013557C43.002 1.23501 43.0048 2.45561 42.9984 3.67706C41.1823 3.72014 39.3635 3.68672 37.5456 3.69375C37.5356 4.46005 37.4754 5.23509 37.5894 5.9961C39.3991 5.98379 41.2079 5.99172 43.0176 5.99172C42.9801 7.16397 43.0184 8.33796 42.9956 9.51111C41.1942 9.51815 39.3936 9.51463 37.5922 9.51287C37.4762 10.135 37.5483 10.7686 37.5292 11.3969C37.531 11.8486 37.5009 12.3047 37.5867 12.7528C39.3745 12.7414 41.1632 12.7291 42.9509 12.7555C43.0714 13.1008 42.9719 13.4936 43.0011 13.8574C43.0367 14.6448 42.9172 15.4462 43.0942 16.2222C43.7413 15.6061 44.3034 14.9128 44.9404 14.2871C45.4734 13.6324 46.0884 13.0481 46.647 12.4145C47.0138 12.0129 47.4436 11.6588 47.7494 11.2088C47.7053 11.1233 47.6507 11.043 47.5869 10.9698C46.6825 9.99352 45.7772 9.01869 44.871 8.04534C44.2742 7.35203 43.5816 6.73601 43.0312 6.00751C44.2176 5.96975 45.4067 5.99962 46.594 5.98997C47.0795 6.00048 47.5669 5.96448 48.0514 6.00751C48.9193 6.77115 49.5946 7.7246 50.4945 8.46013C51.1242 7.75185 51.7876 7.07434 52.4 6.35198C52.5551 6.19116 52.7075 5.94689 52.9731 5.98907C54.5163 6.00048 56.0604 5.96975 57.6036 6.00576C57.4042 6.303 57.1726 6.57901 56.9127 6.82916C55.584 8.27121 54.226 9.68862 52.9247 11.1526C53.3965 11.8583 54.0938 12.3978 54.6367 13.0542C55.3942 13.8196 56.1124 14.6193 56.8516 15.4014C57.1473 15.7362 57.4786 16.0446 57.7186 16.4216C56.169 16.4445 54.6176 16.4207 53.0671 16.4313C52.8854 16.4216 52.6683 16.4611 52.5332 16.3135C51.7775 15.4963 51.0366 14.6624 50.2517 13.8697C49.5727 14.6167 48.8582 15.3328 48.2057 16.1026C48.066 16.252 47.9282 16.4656 47.6864 16.4286C41.6258 16.433 35.5647 16.4301 29.5029 16.4199C29.4965 16.0684 29.4856 15.716 29.5111 15.3654L29.5449 15.317C29.5412 15.672 29.5434 16.0273 29.5513 16.383C30.8727 16.3838 32.1942 16.4076 33.5156 16.3671C33.4991 14.0956 33.5138 11.8231 33.5083 9.55153C33.5174 6.37219 33.4909 3.19199 33.5211 0.0126958Z" fill="#FF5F00"/>
<path d="M59.6714 14.3037C60.3094 14.12 61.0924 14.686 60.991 15.3503C61.1106 16.1596 60.0055 16.6517 59.353 16.2422C58.5079 15.86 58.7406 14.4373 59.6714 14.3037ZM59.6824 14.519C59.3274 14.6218 58.9943 14.9724 59.0445 15.3503C58.9961 15.9619 59.7983 16.3916 60.3349 16.1007C60.9007 15.8547 60.9682 14.9882 60.4636 14.6508C60.2345 14.5032 59.948 14.4926 59.6824 14.519V14.519Z" fill="#FF5F00"/>
<path d="M59.4797 14.6922C59.7636 14.7009 60.0747 14.6368 60.3357 14.7739C60.3322 15.1415 60.3493 15.5091 60.3868 15.875C60.364 15.9242 60.3193 16.0217 60.2965 16.0709C60.1468 15.8161 60.0866 15.4997 59.8183 15.3284C59.7535 15.5568 59.6978 15.7888 59.6349 16.0182C59.3574 15.6333 59.5464 15.1298 59.4797 14.6922ZM59.7544 14.9321C59.7581 15.0322 59.7626 15.1324 59.7672 15.2335C59.8612 15.2255 59.9561 15.2185 60.051 15.2124C60.0629 15.1201 60.0747 15.0287 60.0875 14.9373C59.9752 14.9356 59.8648 14.9338 59.7544 14.9321Z" fill="#FF5F00"/>
</svg>
