<svg width="26" height="26" viewBox="0 0 26 26" fill="none" xmlns="http://www.w3.org/2000/svg">
<g clip-path="url(#clip0_0_323)">
<path d="M13 16.4668C14.9146 16.4668 16.4667 14.9147 16.4667 13.0001C16.4667 11.0855 14.9146 9.53345 13 9.53345C11.0854 9.53345 9.53333 11.0855 9.53333 13.0001C9.53333 14.9147 11.0854 16.4668 13 16.4668Z" fill="#F7F7F7"/>
<path d="M9.74996 2.16675L7.76746 4.33341H4.33329C3.14163 4.33341 2.16663 5.30841 2.16663 6.50008V19.5001C2.16663 20.6917 3.14163 21.6667 4.33329 21.6667H21.6666C22.8583 21.6667 23.8333 20.6917 23.8333 19.5001V6.50008C23.8333 5.30841 22.8583 4.33341 21.6666 4.33341H18.2325L16.25 2.16675H9.74996ZM13 18.4167C10.01 18.4167 7.58329 15.9901 7.58329 13.0001C7.58329 10.0101 10.01 7.58342 13 7.58342C15.99 7.58342 18.4166 10.0101 18.4166 13.0001C18.4166 15.9901 15.99 18.4167 13 18.4167Z" fill="#F7F7F7"/>
</g>
<defs>
<clipPath id="clip0_0_323">
<rect width="26" height="26" fill="white"/>
</clipPath>
</defs>
</svg>
