<svg width="25" height="12" viewBox="0 0 25 12" fill="none" xmlns="http://www.w3.org/2000/svg">
<path opacity="0.35" d="M0.513811 2.74032C0.513811 1.51065 1.51066 0.513811 2.74033 0.513811H19.8674C21.097 0.513811 22.0939 1.51066 22.0939 2.74033V8.90606C22.0939 10.1357 21.097 11.1326 19.8674 11.1326H2.74033C1.51066 11.1326 0.513811 10.1357 0.513811 8.90606V2.74032Z" stroke="white"/>
<path opacity="0.4" d="M23.6353 3.76795V7.87844C24.4623 7.5303 25 6.72044 25 5.82319C25 4.92594 24.4623 4.11608 23.6353 3.76795Z" fill="#F7F7F7"/>
<path d="M2.05524 3.42541C2.05524 2.66869 2.66869 2.05524 3.42541 2.05524H19.1823C19.939 2.05524 20.5524 2.66869 20.5524 3.42541V8.22098C20.5524 8.9777 19.939 9.59114 19.1823 9.59114H3.42541C2.66869 9.59114 2.05524 8.9777 2.05524 8.22098V3.42541Z" fill="#F7F7F7"/>
</svg>
